<!DOCTYPE svg PUBLIC "-//W3C//DTD SVG 1.1//EN" "http://www.w3.org/Graphics/SVG/1.1/DTD/svg11.dtd">
<!-- Uploaded to: SVG Repo, www.svgrepo.com, Transformed by: SVG Repo Mixer Tools -->
<svg height="800px" width="800px" version="1.1" id="Layer_1" xmlns="http://www.w3.org/2000/svg" xmlns:xlink="http://www.w3.org/1999/xlink" viewBox="0 0 575.728 575.728" xml:space="preserve" fill="#000000">
<g id="SVGRepo_bgCarrier" stroke-width="0"/>
<g id="SVGRepo_tracerCarrier" stroke-linecap="round" stroke-linejoin="round"/>
<g id="SVGRepo_iconCarrier"> <circle style="fill: #00334e;" cx="283.032" cy="286.88" r="256"/> <g> <g> <path style="fill:#FFFFFF;" d="M18.616,300.592L2.488,272.96c7.856-4.592,194.336-112.464,352.112-118.336 c164.256-5.904,216.512,110.176,218.64,115.12L543.832,282.4c-1.776-4.08-45.888-101.344-188.048-95.776 C206.088,192.176,20.472,299.52,18.616,300.592z"/> <path style="fill:#FFFFFF;" d="M129.64,529.056l-24.8-20.224c1.056-1.296,105.312-131.008,105.312-271.024 c0-132.944-87.488-161.04-91.2-162.176l9.04-30.704c4.672,1.36,114.176,35.056,114.176,192.88 C242.152,389.392,134.232,523.424,129.64,529.056z"/> <path style="fill:#FFFFFF;" d="M299,575.728l-23.792-21.392c1.184-1.328,118.704-135.008,98.88-334.4 c-14.592-146.832-81.872-192.48-82.544-192.944L308.744,0c3.296,2.096,80.912,52.928,97.184,216.768 C427.192,430.72,304.232,569.904,299,575.728z"/> <path style="fill:#FFFFFF;" d="M522.472,382.368c-107.696-139.232-51.264-261.824-48.816-266.992l28.88,13.776l-14.432-6.896 l14.464,6.832c-2.096,4.464-50,110.592,45.216,233.664L522.472,382.368z"/> </g> </g> </g>
</svg>